<?xml version="1.0" standalone="no"?>
<!DOCTYPE svg PUBLIC "-//W3C//DTD SVG 20010904//EN"
 "http://www.w3.org/TR/2001/REC-SVG-20010904/DTD/svg10.dtd">
<svg version="1.0" xmlns="http://www.w3.org/2000/svg"
 width="160.000000pt" height="160.000000pt" viewBox="0 0 160.000000 160.000000"
 preserveAspectRatio="xMidYMid meet">
<metadata>
Created by potrace 1.11, written by Peter Selinger 2001-2013
</metadata>
<g transform="translate(0.000000,160.000000) scale(0.100000,-0.100000)"
fill="#000000" stroke="none">
<path d="M622 1521 c-263 -65 -475 -276 -543 -540 -24 -93 -27 -269 -5 -351
75 -283 269 -481 547 -556 146 -40 365 -17 502 52 265 134 418 379 418 669 0
177 -48 319 -155 461 -93 124 -266 234 -423 268 -95 21 -248 19 -341 -3z m756
-718 l3 -153 -581 0 -580 0 0 148 c0 82 3 152 7 155 3 4 263 6 577 5 l571 -3
3 -152z"/>
</g>
</svg>
